<svg width="18" height="18" viewBox="0 0 18 18" fill="none" xmlns="http://www.w3.org/2000/svg">
<path d="M16.992 0H1.008C0.45225 0 0 0.45225 0 1.008V16.992C0 17.5478 0.45225 18 1.008 18H16.9926C17.5478 18 18 17.5478 18 16.992V1.008C18 0.45225 17.5478 0 16.992 0ZM11.5954 17.4375H6.43556C6.78825 15.7691 6.7545 14.0827 6.57394 12.411C7.182 12.3289 7.78837 12.2394 8.38912 12.1461C9.46856 11.9779 10.5621 11.8097 11.6584 11.7113C11.907 13.6243 12.0144 15.5571 11.5954 17.4375ZM8.3025 11.5898C7.7085 11.682 7.11 11.7731 6.50925 11.8541C6.41531 11.1015 6.30169 10.3522 6.18638 9.61031C6.04125 8.67431 5.89444 7.72875 5.79375 6.77925C6.66506 6.67969 7.53131 6.54637 8.38856 6.41306C9.21769 6.28425 10.0547 6.15544 10.8951 6.057C10.989 7.28044 11.1769 8.49656 11.3631 9.69694C11.4379 10.179 11.511 10.665 11.5802 11.1521C10.4788 11.2534 9.38419 11.4221 8.3025 11.5898ZM0.5625 6.66675C1.46756 6.858 2.37712 6.94012 3.28781 6.94012C3.9375 6.94012 4.58606 6.894 5.23406 6.83269C5.33644 7.79456 5.48438 8.75137 5.63119 9.69806C5.74537 10.4344 5.85844 11.1786 5.95125 11.9244C4.14787 12.1421 2.33212 12.2164 0.5625 11.8221V6.66675ZM6.2955 0.5625H11.4339C10.8917 2.20556 10.7753 3.85594 10.8585 5.49563C10.0007 5.59519 9.14738 5.72681 8.30194 5.85787C7.45537 5.9895 6.59869 6.11888 5.73975 6.21675C5.58 4.32731 5.64244 2.42719 6.2955 0.5625ZM11.9188 9.61088C11.7337 8.41838 11.5476 7.21012 11.4559 5.99794C13.4533 5.80275 15.4654 5.832 17.4375 6.52275V11.6606C15.6729 11.0779 13.9005 10.9884 12.1421 11.1077C12.0712 10.6065 11.9959 10.107 11.9188 9.61088ZM17.4375 1.008V5.92875C15.4316 5.26613 13.4145 5.24137 11.421 5.43544C11.3411 3.80475 11.4649 2.17069 12.0279 0.5625H16.9926C17.2378 0.5625 17.4375 0.762188 17.4375 1.008ZM1.008 0.5625H5.70206C5.07263 2.46656 5.01806 4.38131 5.18062 6.27694C3.63206 6.42431 2.08012 6.42825 0.5625 6.08963V1.008C0.5625 0.762188 0.762188 0.5625 1.008 0.5625ZM0.5625 16.992V12.3986C1.46756 12.5899 2.37712 12.672 3.28781 12.672C4.19906 12.672 5.11031 12.5944 6.0165 12.4847C6.19425 14.1441 6.22575 15.8102 5.86294 17.4375H1.008C0.762188 17.4375 0.5625 17.2378 0.5625 16.992ZM16.992 17.4375H12.1674C12.5724 15.5216 12.4678 13.5816 12.2198 11.6674C13.9652 11.5526 15.7163 11.6522 17.4369 12.2546V16.992C17.4375 17.2378 17.2378 17.4375 16.992 17.4375Z" fill="#C3C3C3"/>
</svg>
