<svg width="18" height="14" viewBox="0 0 18 14" fill="none" xmlns="http://www.w3.org/2000/svg">
<path d="M1 9H3C4 9 4 9 4 8V6C4 5 4 5 3 5H1C0 5 0 5 0 6V8C0 9 0 9 1 9ZM1 14H3C4 14 4 14 4 13V11C4 10 4 10 3 10H1C0 10 0 10 0 11V13C0 14 0 14 1 14ZM1 4H3C4 4 4 4 4 3V1C4 0 4 0 3 0H1C0 0 0 0 0 1V3C0 4 0 4 1 4ZM6 9H17C18 9 18 9 18 8V6C18 5 18 5 17 5H6C5 5 5 5 5 6V8C5 9 5 9 6 9ZM6 14H17C18 14 18 14 18 13V11C18 10 18 10 17 10H6C5 10 5 10 5 11V13C5 14 5 14 6 14ZM5 1V3C5 4 5 4 6 4H17C18 4 18 4 18 3V1C18 0 18 0 17 0H6C5 0 5 0 5 1Z" fill="#C3C3C3"/>
</svg>
