<svg width="27" height="27" viewBox="0 0 27 27" fill="none" xmlns="http://www.w3.org/2000/svg">
<path fill-rule="evenodd" clip-rule="evenodd" d="M17.64 15.405C17.64 15.405 26.4244 22.0054 26.235 24C26.0456 25.9946 25.9997 26 24 26.235C22.0003 26.47 15.405 17.64 15.405 17.64C13.8002 18.795 11.8647 19.5 9.75 19.5C4.36571 19.5 0 15.135 0 9.75C0 4.365 4.36571 0 9.75 0C15.1343 0 19.5 4.365 19.5 9.75C19.5 11.865 18.7948 13.8 17.64 15.405ZM9.75 3C6.01549 3 3 6.015 3 9.75C3 13.485 6.01549 16.5 9.75 16.5C13.4845 16.5 16.5 13.485 16.5 9.75C16.5 6.015 13.4845 3 9.75 3Z" fill="#C3C3C3"/>
</svg>
