<svg width="17" height="20" viewBox="0 0 17 20" fill="none" xmlns="http://www.w3.org/2000/svg">
<path fill-rule="evenodd" clip-rule="evenodd" d="M14.375 5H1.875C1.53 5 1.25 4.72062 1.25 4.375C1.25 4.03 1.53 3.75 1.875 3.75H14.375C14.72 3.75 15 4.03 15 4.375C15 4.72062 14.72 5 14.375 5ZM13.75 17.5C13.75 18.19 13.19 18.75 12.5 18.75H3.75C3.06 18.75 2.5 18.19 2.5 17.5V6.25H13.75V17.5ZM6.25 1.875C6.25 1.52938 6.53 1.25 6.875 1.25H9.375C9.72 1.25 10 1.52938 10 1.875V2.5H6.25V1.875ZM15 2.5H11.25V1.25C11.25 0.56 10.69 0 10 0H6.25C5.56 0 5 0.56 5 1.25V2.5H1.25C0.56 2.5 0 3.06 0 3.75V5C0 5.69 0.56 6.25 1.25 6.25V17.5C1.25 18.8806 2.36937 20 3.75 20H12.5C13.8806 20 15 18.8806 15 17.5V6.25C15.69 6.25 16.25 5.69 16.25 5V3.75C16.25 3.06 15.69 2.5 15 2.5ZM8.125 17.5C8.47 17.5 8.75 17.2206 8.75 16.875V9.375C8.75 9.03 8.47 8.75 8.125 8.75C7.78 8.75 7.5 9.03 7.5 9.375V16.875C7.5 17.2206 7.78 17.5 8.125 17.5ZM5 17.5C5.345 17.5 5.625 17.2206 5.625 16.875V9.375C5.625 9.03 5.345 8.75 5 8.75C4.655 8.75 4.375 9.03 4.375 9.375V16.875C4.375 17.2206 4.655 17.5 5 17.5ZM11.25 17.5C11.595 17.5 11.875 17.2206 11.875 16.875V9.375C11.875 9.03 11.595 8.75 11.25 8.75C10.905 8.75 10.625 9.03 10.625 9.375V16.875C10.625 17.2206 10.905 17.5 11.25 17.5Z" fill="#D15230"/>
</svg>
